<svg style="position:absolute;width:0;height:0" xmlns="http://www.w3.org/2000/svg" overflow="hidden"><defs><symbol id="geo" viewBox="0 0 23 32"><title>geo</title><path d="M11.429 0h-.001C5.116 0-.001 5.117-.001 11.429l.001.168v-.008c0 7.931 10.217 19.566 10.651 20.069a1.027 1.027 0 0 0 1.531.001l.001-.001c.457-.503 10.674-12.137 10.674-20.069l.001-.16C22.858 5.117 17.741 0 11.429 0h-.001zm0 17.417h-.069a5.83 5.83 0 1 1 5.829-5.83v.023c0 3.19-2.573 5.78-5.758 5.806h-.002z"/></symbol><symbol id="email" viewBox="0 0 46 32"><title>email</title><path d="M20.345 14.939a4.27 4.27 0 0 0 2.922.812l-.016.001a4.28 4.28 0 0 0 2.918-.822l-.012.008 16.654-13.05c1.337-1.046 1.046-1.889-.668-1.889H4.359c-1.715 0-2.034.843-.698 1.889zm23.601-9.591l-18.311 13.66a4.093 4.093 0 0 1-2.339.727h-.047.002a4.109 4.109 0 0 1-2.484-.736l.014.009L2.47 5.319C1.104 4.331 0 4.854 0 6.54v22.525a3.083 3.083 0 0 0 3.076 2.907h.036-.002 40.317a3.082 3.082 0 0 0 3.076-2.898V6.541c0-1.686-1.133-2.209-2.5-1.221z"/></symbol><symbol id="tel" viewBox="0 0 32 32"><title>tel</title><path d="M26.905 20.012c-.454-.529-1.124-.862-1.871-.862s-1.417.333-1.868.858l-.003.003-2.609 2.634a.516.516 0 0 1-.716.122l.002.001c-.566-.32-1.182-.566-1.723-.886a27.43 27.43 0 0 1-6.529-5.926l-.043-.056a15.516 15.516 0 0 1-2.421-3.671l-.04-.095a.544.544 0 0 1 .122-.689l.001-.001c.886-.837 1.723-1.723 2.585-2.585a2.462 2.462 0 0 0 .128-3.934l-.005-.004-2.068-1.945L7.755.834C7.301.305 6.631-.028 5.884-.028S4.467.305 4.016.83l-.003.003c-.911.886-1.748 1.772-2.634 2.634A4.25 4.25 0 0 0 .001 6.335L0 6.348a12.272 12.272 0 0 0 .99 5.323l-.031-.08c1.419 3.625 3.331 6.747 5.695 9.467l-.033-.039a35.271 35.271 0 0 0 11.413 8.991l.205.092c1.847 1 4.011 1.676 6.309 1.89l.067.005a4.69 4.69 0 0 0 4.032-1.546l.004-.005c.763-.837 1.6-1.6 2.462-2.462a2.458 2.458 0 0 0 .004-3.812l-.004-.003z"/></symbol></defs></svg>