<svg style="position:absolute;width:0;height:0" xmlns="http://www.w3.org/2000/svg" overflow="hidden"><defs><symbol id="vk" viewBox="0 0 54 32"><title>social_vk</title><path d="M53.385 28.89l-.18-.36a29.068 29.068 0 0 0-5.321-6.429l-.025-.022q-1.799-1.773-2.262-2.39a2.328 2.328 0 0 1-.549-1.506c0-.309.06-.605.169-.875l-.006.016a22.187 22.187 0 0 1 2.598-3.864l-.028.034 1.825-2.57q4.627-6.734 3.984-8.61l-.154-.283a1.624 1.624 0 0 0-.863-.487l-.01-.002a4.236 4.236 0 0 0-1.828.005l.028-.005h-8.045a.977.977 0 0 0-.573.002l.007-.002h-.488a1.245 1.245 0 0 0-.537.533l-.003.007a1.994 1.994 0 0 0-.278.5l-.005.014c-.954 2.585-1.958 4.754-3.109 6.83l.127-.25q-1.028 1.799-1.902 3.136a15.205 15.205 0 0 1-1.478 1.969l.013-.015c-.328.357-.672.685-1.037.989l-.017.014c-.308.257-.565.36-.72.308h-.488a1.916 1.916 0 0 1-.612-.709l-.005-.011a3.213 3.213 0 0 1-.333-1.116l-.001-.015V3.805a6.88 6.88 0 0 0-.002-1.365l.002.029a4.682 4.682 0 0 0-.189-1.036l.009.033a1.584 1.584 0 0 0-.56-.691l-.005-.003a3.084 3.084 0 0 0-.904-.381l-.021-.004A17.51 17.51 0 0 0 25.899 0l-.208.001h.011a17.633 17.633 0 0 0-6.807.727l.125-.034a3.81 3.81 0 0 0-1.022.892l-.006.008c-.257.411-.283.643 0 .694a3.365 3.365 0 0 1 2.36 1.253l.005.007.206.334c.139.364.247.789.305 1.23l.003.029c.13.622.222 1.355.256 2.103l.001.031a24.087 24.087 0 0 1-.006 3.733l.005-.083q-.128 1.516-.257 2.365a4.854 4.854 0 0 1-.32 1.498l.011-.033a5.708 5.708 0 0 1-.423.685l.012-.017h-.154c-.22.094-.476.151-.744.154h-.001a1.723 1.723 0 0 1-.953-.413l.002.002a6.83 6.83 0 0 1-1.147-1.118l-.01-.013a14.84 14.84 0 0 1-1.324-1.932l-.039-.073q-.745-1.285-1.568-3.033l-.437-.848q-.411-.822-1.157-2.39t-1.285-3.033a1.946 1.946 0 0 0-.662-.793l-.006-.004-.129-.077c-.126-.1-.27-.186-.425-.252l-.012-.005a2.707 2.707 0 0 0-.626-.178l-.016-.002H1.746a1.894 1.894 0 0 0-1.541.615l-.001.002-.206.154a.971.971 0 0 0 .001.392l-.001-.006c.016.291.08.563.186.813l-.006-.016q1.671 4.112 3.65 7.942t3.418 6.169q1.439 2.416 3.033 4.472t2.005 2.57l.771.874.694.694a16.99 16.99 0 0 0 1.931 1.637l.049.034a32.94 32.94 0 0 0 2.728 1.843l.151.085a15.06 15.06 0 0 0 3.567 1.516l.109.026c1.036.32 2.228.504 3.462.504.22 0 .438-.006.655-.017l-.03.001h3.213a2.182 2.182 0 0 0 1.491-.642v-.154a1.93 1.93 0 0 0 .203-.526l.003-.013a3.07 3.07 0 0 0-.001-.812l.002.016a10.139 10.139 0 0 1 .19-2.326l-.011.064a6.104 6.104 0 0 1 .478-1.554l-.016.038c.164-.334.362-.622.594-.877l-.003.003c.142-.156.303-.292.479-.406l.009-.006h.231a1.716 1.716 0 0 1 1.568.463 9.622 9.622 0 0 1 1.681 1.675l.016.021a70.58 70.58 0 0 0 1.902 2.262 13.42 13.42 0 0 0 1.925 1.855l.029.022.565.36c.421.255.906.473 1.419.63l.046.012a3.043 3.043 0 0 0 1.586.152l-.018.003h7.145a3.124 3.124 0 0 0 1.662-.368l-.017.008c.322-.17.568-.449.691-.787l.003-.01a2.317 2.317 0 0 0-.003-1.018l.003.016a3.75 3.75 0 0 0-.055-.948l.004.023z"/></symbol><symbol id="twitter" viewBox="0 0 40 32"><title>social_twitter</title><path d="M38.585.592a16.25 16.25 0 0 1-5.037 1.962l-.108.019a8.129 8.129 0 0 0-13.88 7.413l-.011-.055a23.134 23.134 0 0 1-16.74-8.423l-.032-.04a7.96 7.96 0 0 0-1.083 4.033 8.044 8.044 0 0 0 3.625 6.727l.03.019a8.167 8.167 0 0 1-3.798-1.025l.042.021-.001.102c0 3.92 2.784 7.19 6.482 7.941l.052.009c-.64.18-1.376.283-2.135.283a8.453 8.453 0 0 1-1.597-.163l.054.009c1.1 3.275 4.136 5.594 7.715 5.608h.002A16.33 16.33 0 0 1 2.06 28.505h-.113.006a17.332 17.332 0 0 1-2.056-.22l.101.014c3.521 2.275 7.823 3.627 12.441 3.627h.037-.002l.232.001c12.658 0 22.92-10.261 22.92-22.92v-.083.004-.952a16.462 16.462 0 0 0 4.028-4.111l.036-.056a15.96 15.96 0 0 1-4.602 1.278l-.08.008A8.163 8.163 0 0 0 38.567.651l.016-.057z"/></symbol><symbol id="instagram" viewBox="0 0 33 32"><title>social_instagram</title><path d="M23.674 0H9A9 9 0 0 0 .001 8.812v14.366c.101 4.893 4.092 8.821 9 8.821h14.654a9 9 0 0 0 8.999-8.812V8.821C32.553 3.935 28.574.011 23.676 0h-.001zm6.121 23.179a6.076 6.076 0 0 1-6.076 6.076H8.979a6.076 6.076 0 0 1-6.076-6.076V8.822a6.077 6.077 0 0 1 6.075-5.986h14.719a6.075 6.075 0 0 1 6.075 5.981v.005zM16.293 7.764h-.023a8.349 8.349 0 0 0-8.348 8.23V16a8.428 8.428 0 0 0 16.856 0c-.063-4.562-3.777-8.237-8.348-8.237l-.096.001h.005zm0 13.659a5.402 5.402 0 1 1 5.514-5.401 5.47 5.47 0 0 1-5.468 5.378h-.001zm8.776-16.067a2.243 2.243 0 0 0-1.509.609l.001-.001a2.044 2.044 0 0 0-.641 1.488c0 .618.274 1.172.706 1.547l.003.002c.397.36.927.58 1.508.58s1.11-.22 1.51-.582l-.002.002c.386-.373.626-.895.626-1.474s-.24-1.101-.626-1.473l-.001-.001a2.24 2.24 0 0 0-1.502-.697h-.006z"/></symbol><symbol id="fb" viewBox="0 0 18 32"><title>social_fb</title><path d="M17.48 0h-4.36a7.46 7.46 0 0 0-7.999 7.901L5.12 7.88v3.62H.66a.66.66 0 0 0-.66.66v5.26a.66.66 0 0 0 .655.58h.026H.68h4.38v13.28c0 .364.295.66.66.66h.021-.001 5.74a.66.66 0 0 0 .66-.66V18h5.12a.66.66 0 0 0 .739-.577V12.16a.638.638 0 0 0-.2-.46.701.701 0 0 0-.479-.2h-5.181V8.42c0-1.48.38-2.22 2.4-2.22h2.94a.68.68 0 0 0 .68-.659V.66a.68.68 0 0 0-.68-.66z"/></symbol><symbol id="dribble" viewBox="0 0 33 32"><title>social_dribble</title><path d="M16.338 0l-.159-.001C7.306-.001.101 7.141 0 15.99V16c.101 8.859 7.306 16.001 16.179 16.001l.167-.001h-.009l.159.001c8.873 0 16.078-7.142 16.179-15.991V16C32.574 7.141 25.369-.001 16.496-.001L16.329 0h.009zm10.014 8.304a12.167 12.167 0 0 1 2.722 7.082l.001.029c-1.566-.349-3.367-.554-5.214-.563h-.006a21.798 21.798 0 0 0-3.731.334l.131-.019q-.428-1.013-.855-1.935c2.744-1.173 5.07-2.842 6.962-4.913l.014-.015zM16.338 3.511h.036a12.77 12.77 0 0 1 7.957 2.766l-.027-.02a16.6 16.6 0 0 1-6.19 4.349l-.111.039a43.714 43.714 0 0 0-4.563-6.83l.063.079c.844-.222 1.818-.36 2.821-.382h.014zm-5.626 1.305a38.086 38.086 0 0 1 4.4 6.544l.1.207c-3.02.88-6.49 1.389-10.078 1.395H3.983c.973-3.621 3.426-6.537 6.654-8.113l.074-.033zM3.601 16.067v-.18h1.552a40.97 40.97 0 0 0 11.7-1.695l-.29.074q.36.788.743 1.643c-2.778.921-5.171 2.328-7.199 4.136l.02-.018a21.671 21.671 0 0 0-3.463 3.932l-.048.074A12.182 12.182 0 0 1 3.601 16v-.001zm12.759 12.49a12.798 12.798 0 0 1-7.618-2.545l.034.024a18.336 18.336 0 0 1 2.937-3.523l.011-.01a17.392 17.392 0 0 1 6.516-3.925l.123-.035c.959 2.536 1.83 5.599 2.457 8.751l.064.385c-1.338.513-2.886.81-4.503.81h-.045.002zm7.224-2.25c-.648-3.29-1.425-6.106-2.386-8.835l.135.441a18.24 18.24 0 0 1 2.6-.18h.011-.001c1.778.014 3.5.227 5.153.616l-.157-.031a12.516 12.516 0 0 1-5.332 7.938l-.046.029z"/></symbol><symbol id="behance" viewBox="0 0 51 32"><title>social_behance</title><path d="M46.302 4.527H33.44v-3.19h12.862v3.19zM24.977 17.672a8.376 8.376 0 0 1 1.234 4.696v-.014l.002.192a9.32 9.32 0 0 1-1.44 4.991l.023-.039a8.985 8.985 0 0 1-2.243 2.557l-.02.015a8.694 8.694 0 0 1-3.546 1.586l-.056.009a21.78 21.78 0 0 1-4.402.438h-.132.007H-.001V0h15.434a9.78 9.78 0 0 1 8.272 3.407l.011.014a8.088 8.088 0 0 1 1.466 4.898v-.011a7.092 7.092 0 0 1-1.479 4.724l.012-.016a7.74 7.74 0 0 1-2.398 1.806l-.046.02a7.14 7.14 0 0 1 3.688 2.804l.016.026zM7.383 12.527h6.765a6.38 6.38 0 0 0 3.405-.711l-.035.017a3.037 3.037 0 0 0 1.285-2.817l.001.013a2.856 2.856 0 0 0-1.705-2.951l-.018-.007a11.745 11.745 0 0 0-3.797-.514h.015-5.916zm12.09 9.287a3.42 3.42 0 0 0-2.011-3.412l-.022-.009a7.83 7.83 0 0 0-2.536-.413c-.23 0-.458.01-.683.029l.029-.002H7.382v8.54h6.74a7.48 7.48 0 0 0 3.29-.584l-.049.019a4.044 4.044 0 0 0 2.107-4.11l.002.021zm31.717-5.145a29.203 29.203 0 0 1 .256 4.61l.001-.031h-16.72a5.473 5.473 0 0 0 2.374 4.823l.019.012a5.952 5.952 0 0 0 3.128.877l.173-.002h-.008a4.655 4.655 0 0 0 4.541-2.545l.012-.027h6.122a7.47 7.47 0 0 1-2.209 4.061l-.003.003a11.08 11.08 0 0 1-8.649 3.342l.031.002-.155.001a12.453 12.453 0 0 1-7.944-2.848l.021.017a11.114 11.114 0 0 1-3.495-9.202l-.003.044a12.376 12.376 0 0 1 3.174-9.143l-.01.011a11 11 0 0 1 8.227-3.189l-.022-.001.176-.001a13 13 0 0 1 5.283 1.114l-.083-.033a9.326 9.326 0 0 1 3.94 3.361l.022.035a11.177 11.177 0 0 1 1.794 4.673l.007.06zm-6.02.591a5.133 5.133 0 0 0-1.593-3.625l-.002-.002a5.117 5.117 0 0 0-3.56-1.235h.01a4.744 4.744 0 0 0-3.578 1.313l.002-.002a6.152 6.152 0 0 0-1.593 3.523l-.002.027z"/></symbol></defs></svg>