<svg aria-hidden="true" style="position: absolute; width: 0; height: 0; overflow: hidden;" version="1.1" xmlns="http://www.w3.org/2000/svg" xmlns:xlink="http://www.w3.org/1999/xlink">
<defs>
<symbol id="vk" viewBox="0 0 54 32">
<title>social_vk</title>
<path d="M53.385 28.89l-0.18-0.36c-1.516-2.47-3.287-4.592-5.321-6.429l-0.025-0.022q-1.799-1.773-2.262-2.39c-0.341-0.404-0.549-0.93-0.549-1.506 0-0.309 0.060-0.605 0.169-0.875l-0.006 0.016c0.777-1.455 1.63-2.71 2.598-3.864l-0.028 0.034 1.825-2.57q4.627-6.734 3.984-8.61l-0.154-0.283c-0.227-0.244-0.526-0.418-0.863-0.487l-0.010-0.002c-0.27-0.062-0.581-0.097-0.9-0.097s-0.629 0.035-0.928 0.102l0.028-0.005h-8.045c-0.085-0.026-0.182-0.041-0.283-0.041s-0.198 0.015-0.29 0.043l0.007-0.002h-0.488c-0.234 0.121-0.419 0.306-0.537 0.533l-0.003 0.007c-0.113 0.148-0.209 0.318-0.278 0.5l-0.005 0.014c-0.954 2.585-1.958 4.754-3.109 6.83l0.127-0.25q-1.028 1.799-1.902 3.136c-0.467 0.735-0.949 1.373-1.478 1.969l0.013-0.015c-0.328 0.357-0.672 0.685-1.037 0.989l-0.017 0.014c-0.308 0.257-0.565 0.36-0.72 0.308h-0.488c-0.262-0.185-0.471-0.427-0.612-0.709l-0.005-0.011c-0.17-0.328-0.288-0.711-0.333-1.116l-0.001-0.015c0-0.463 0-0.848 0-1.182s0-0.797 0-1.414 0-1.002 0-1.234c0-0.745 0-1.542 0-2.416s0-1.542 0-2.056 0-1.028 0-1.619c0.020-0.2 0.032-0.433 0.032-0.668s-0.012-0.468-0.034-0.697l0.002 0.029c-0.026-0.368-0.090-0.709-0.189-1.036l0.009 0.033c-0.121-0.287-0.316-0.522-0.56-0.691l-0.005-0.003c-0.266-0.168-0.575-0.3-0.904-0.381l-0.021-0.004c-1.115-0.246-2.396-0.387-3.71-0.387-0.069 0-0.138 0-0.208 0.001l0.011-0c-0.465-0.044-1.007-0.069-1.553-0.069-1.83 0-3.595 0.279-5.254 0.796l0.125-0.034c-0.402 0.242-0.743 0.542-1.022 0.892l-0.006 0.008c-0.257 0.411-0.283 0.643 0 0.694 0.961 0.079 1.798 0.551 2.36 1.253l0.005 0.007 0.206 0.334c0.139 0.364 0.247 0.789 0.305 1.23l0.003 0.029c0.13 0.622 0.222 1.355 0.256 2.103l0.001 0.031c0.045 0.546 0.070 1.183 0.070 1.825s-0.026 1.279-0.076 1.908l0.005-0.083q-0.128 1.516-0.257 2.365c-0.029 0.534-0.14 1.033-0.32 1.498l0.011-0.033c-0.137 0.259-0.273 0.477-0.423 0.685l0.012-0.017h-0.154c-0.22 0.094-0.476 0.151-0.744 0.154h-0.001c-0.367-0.039-0.694-0.188-0.953-0.413l0.002 0.002c-0.435-0.335-0.814-0.707-1.147-1.118l-0.010-0.013c-0.476-0.587-0.927-1.242-1.324-1.932l-0.039-0.073q-0.745-1.285-1.568-3.033l-0.437-0.848q-0.411-0.822-1.157-2.39t-1.285-3.033c-0.15-0.327-0.379-0.597-0.662-0.793l-0.006-0.004-0.129-0.077c-0.126-0.1-0.27-0.186-0.425-0.252l-0.012-0.005c-0.185-0.079-0.401-0.142-0.626-0.178l-0.016-0.002h-7.711c-0.041-0.003-0.088-0.005-0.136-0.005-0.557 0-1.057 0.239-1.405 0.62l-0.001 0.002-0.206 0.154c-0.012 0.058-0.019 0.125-0.019 0.193s0.007 0.135 0.020 0.199l-0.001-0.006c0.016 0.291 0.080 0.563 0.186 0.813l-0.006-0.016q1.671 4.112 3.65 7.942t3.418 6.169q1.439 2.416 3.033 4.472t2.005 2.57l0.771 0.874 0.694 0.694c0.6 0.591 1.246 1.139 1.931 1.637l0.049 0.034c0.818 0.618 1.757 1.254 2.728 1.843l0.151 0.085c1.057 0.627 2.278 1.153 3.567 1.516l0.109 0.026c1.036 0.32 2.228 0.504 3.462 0.504 0.22 0 0.438-0.006 0.655-0.017l-0.030 0.001h3.213c0.584-0.016 1.108-0.258 1.491-0.642l0-0v-0.154c0.089-0.156 0.16-0.336 0.203-0.526l0.003-0.013c0.016-0.12 0.026-0.258 0.026-0.398s-0.009-0.279-0.027-0.414l0.002 0.016c-0.004-0.102-0.006-0.221-0.006-0.341 0-0.68 0.068-1.343 0.196-1.985l-0.011 0.064c0.097-0.569 0.258-1.078 0.478-1.554l-0.016 0.038c0.164-0.334 0.362-0.622 0.594-0.877l-0.003 0.003c0.142-0.156 0.303-0.292 0.479-0.406l0.009-0.006h0.231c0.107-0.023 0.229-0.037 0.355-0.037 0.473 0 0.902 0.191 1.213 0.5l-0-0c0.64 0.499 1.198 1.056 1.681 1.675l0.016 0.021c0.54 0.668 1.157 1.414 1.902 2.262 0.589 0.692 1.229 1.307 1.925 1.855l0.029 0.022 0.565 0.36c0.421 0.255 0.906 0.473 1.419 0.63l0.046 0.012c0.317 0.124 0.684 0.196 1.068 0.196 0.177 0 0.35-0.015 0.518-0.044l-0.018 0.003h7.145c0.053 0.003 0.115 0.005 0.177 0.005 0.537 0 1.043-0.135 1.485-0.373l-0.017 0.008c0.322-0.17 0.568-0.449 0.691-0.787l0.003-0.010c0.034-0.151 0.054-0.324 0.054-0.501s-0.020-0.351-0.057-0.517l0.003 0.016c0.006-0.077 0.009-0.166 0.009-0.256 0-0.237-0.022-0.468-0.064-0.692l0.004 0.023z"></path>
</symbol>
<symbol id="twitter" viewBox="0 0 40 32">
<title>social_twitter</title>
<path d="M38.585 0.592c-1.481 0.893-3.203 1.579-5.037 1.962l-0.108 0.019c-1.49-1.611-3.615-2.616-5.974-2.616-4.489 0-8.129 3.639-8.129 8.129 0 0.654 0.077 1.291 0.223 1.9l-0.011-0.055c-6.772-0.346-12.731-3.551-16.74-8.423l-0.032-0.040c-0.681 1.157-1.083 2.548-1.083 4.033 0 2.812 1.441 5.287 3.625 6.727l0.030 0.019c-1.382-0.031-2.671-0.399-3.798-1.025l0.042 0.021c-0 0.030-0.001 0.066-0.001 0.102 0 3.92 2.784 7.19 6.482 7.941l0.052 0.009c-0.64 0.18-1.376 0.283-2.135 0.283h-0c-0.549-0.004-1.081-0.060-1.597-0.163l0.054 0.009c1.1 3.275 4.136 5.594 7.715 5.608h0.002c-2.758 2.166-6.279 3.473-10.105 3.473-0.038 0-0.075-0-0.113-0l0.006 0c-0.723-0.035-1.396-0.109-2.056-0.22l0.101 0.014c3.521 2.275 7.823 3.627 12.441 3.627 0.012 0 0.024 0 0.037-0h-0.002c0.069 0.001 0.15 0.001 0.232 0.001 12.658 0 22.92-10.261 22.92-22.92 0-0.028-0-0.055-0-0.083v0.004-0.952c1.601-1.149 2.95-2.53 4.028-4.111l0.036-0.056c-1.363 0.62-2.944 1.073-4.602 1.278l-0.080 0.008c1.684-1.017 2.949-2.582 3.559-4.444l0.016-0.057z"></path>
</symbol>
<symbol id="instagram" viewBox="0 0 33 32">
<title>social_instagram</title>
<path d="M23.674 0h-14.672c-0.001 0-0.001 0-0.002 0-4.908 0-8.899 3.928-8.999 8.812l-0 0.009v14.357c0.101 4.893 4.092 8.821 9 8.821 0.001 0 0.001 0 0.002 0h14.65c0.001 0 0.001 0 0.002 0 4.908 0 8.899-3.928 8.999-8.812l0-0.009v-14.357c-0.101-4.886-4.080-8.81-8.978-8.821h-0.001zM29.795 23.179c0 0 0 0 0 0 0 3.356-2.72 6.076-6.076 6.076-0.016 0-0.032-0-0.047-0h-14.67c-0.007 0-0.015 0-0.023 0-3.356 0-6.076-2.72-6.076-6.076 0 0 0-0 0-0v0-14.357c0.051-3.317 2.751-5.986 6.075-5.986 0.008 0 0.016 0 0.024 0h14.649c0.014-0 0.030-0 0.046-0 3.324 0 6.025 2.669 6.075 5.981l0 0.005zM16.293 7.764c-0.007-0-0.015-0-0.023-0-4.571 0-8.285 3.674-8.348 8.23l-0 0.006c0 4.654 3.773 8.428 8.428 8.428s8.428-3.773 8.428-8.428v0c-0.063-4.562-3.777-8.237-8.348-8.237-0.032 0-0.064 0-0.096 0.001l0.005-0zM16.293 21.423c-2.934-0.063-5.288-2.456-5.288-5.4 0-2.983 2.418-5.401 5.401-5.401s5.4 2.417 5.401 5.4v0c-0.051 2.981-2.479 5.378-5.468 5.378-0 0-0.001 0-0.001 0h0zM25.069 5.356c-0.584 0.008-1.114 0.238-1.509 0.609l0.001-0.001c-0.395 0.374-0.641 0.903-0.641 1.488 0 0.618 0.274 1.172 0.706 1.547l0.003 0.002c0.397 0.36 0.927 0.58 1.508 0.58s1.11-0.22 1.51-0.582l-0.002 0.002c0.386-0.373 0.626-0.895 0.626-1.474s-0.24-1.101-0.626-1.473l-0.001-0.001c-0.383-0.403-0.912-0.664-1.502-0.697l-0.006-0z"></path>
</symbol>
<symbol id="fb" viewBox="0 0 18 32">
<title>social_fb</title>
<path d="M17.48 0h-4.36c-0.166-0.013-0.358-0.021-0.553-0.021-4.12 0-7.46 3.34-7.46 7.46 0 0.155 0.005 0.309 0.014 0.462l-0.001-0.021v3.62h-4.44c-0.006-0-0.013-0-0.020-0-0.364 0-0.66 0.296-0.66 0.66 0 0 0 0 0 0v-0 5.26c0.041 0.329 0.319 0.58 0.655 0.58 0.009 0 0.017-0 0.026-0l-0.001 0h4.38v13.28c0 0 0 0 0 0 0 0.364 0.295 0.66 0.66 0.66 0.007 0 0.014-0 0.021-0l-0.001 0h5.72c0.006 0 0.013 0 0.020 0 0.364 0 0.66-0.296 0.66-0.66 0-0 0-0 0-0v0-13.28h5.12c0.025 0.003 0.055 0.005 0.084 0.005 0.338 0 0.617-0.254 0.655-0.582l0-0.003v-5.26c-0.001-0.181-0.078-0.344-0.2-0.46l-0-0c-0.124-0.121-0.293-0.197-0.479-0.2h-5.181v-3.080c0-1.48 0.38-2.22 2.4-2.22h2.94c0 0 0 0 0 0 0.369 0 0.669-0.293 0.68-0.659l0-0.001v-4.88c-0.011-0.367-0.311-0.66-0.68-0.66-0 0-0 0-0 0h0z"></path>
</symbol>
<symbol id="dribble" viewBox="0 0 33 32">
<title>social_dribble</title>
<path d="M16.338 0c-0.047-0.001-0.103-0.001-0.159-0.001-8.873 0-16.078 7.142-16.179 15.991l-0 0.010c0.101 8.859 7.306 16.001 16.179 16.001 0.056 0 0.111-0 0.167-0.001l-0.009 0c0.047 0.001 0.103 0.001 0.159 0.001 8.873 0 16.078-7.142 16.179-15.991l0-0.010c-0.101-8.859-7.306-16.001-16.179-16.001-0.056 0-0.111 0-0.167 0.001l0.009-0zM26.352 8.304c1.58 1.934 2.584 4.393 2.722 7.082l0.001 0.029c-1.566-0.349-3.367-0.554-5.214-0.563l-0.006-0c-1.275 0.005-2.521 0.119-3.731 0.334l0.131-0.019q-0.428-1.013-0.855-1.935c2.744-1.173 5.070-2.842 6.962-4.913l0.014-0.015zM16.338 3.511c0.011-0 0.023-0 0.036-0 3.006 0 5.771 1.034 7.957 2.766l-0.027-0.020c-1.698 1.898-3.807 3.393-6.19 4.349l-0.111 0.039c-1.397-2.567-2.889-4.776-4.563-6.83l0.063 0.079c0.844-0.222 1.818-0.36 2.821-0.382l0.014-0zM10.712 4.816c1.652 1.973 3.146 4.185 4.4 6.544l0.1 0.207c-3.020 0.88-6.49 1.389-10.078 1.395h-1.151c0.973-3.621 3.426-6.537 6.654-8.113l0.074-0.033zM3.601 16.067s0-0.113 0-0.18h1.395c0.047 0 0.102 0 0.157 0 4.065 0 7.993-0.592 11.7-1.695l-0.29 0.074q0.36 0.788 0.743 1.643c-2.778 0.921-5.171 2.328-7.199 4.136l0.020-0.018c-1.32 1.178-2.477 2.492-3.463 3.932l-0.048 0.074c-1.87-2.136-3.012-4.951-3.015-8.033v-0.001zM16.36 28.557c-2.857-0.014-5.491-0.958-7.618-2.545l0.034 0.024c0.863-1.339 1.836-2.498 2.937-3.523l0.011-0.010c1.83-1.748 4.051-3.105 6.516-3.925l0.123-0.035c0.959 2.536 1.83 5.599 2.457 8.751l0.064 0.385c-1.338 0.513-2.886 0.81-4.503 0.81-0.015 0-0.030-0-0.045-0h0.002zM23.584 26.307c-0.648-3.29-1.425-6.106-2.386-8.835l0.135 0.441c0.781-0.115 1.683-0.18 2.6-0.18 0.004 0 0.008 0 0.011 0h-0.001c1.778 0.014 3.5 0.227 5.153 0.616l-0.157-0.031c-0.689 3.35-2.644 6.151-5.332 7.938l-0.046 0.029z"></path>
</symbol>
<symbol id="behance" viewBox="0 0 51 32">
<title>social_behance</title>
<path d="M46.302 4.527h-12.862v-3.19h12.862v3.19zM24.977 17.672c0.778 1.256 1.239 2.778 1.239 4.409 0 0.096-0.002 0.192-0.005 0.287l0-0.014c0.001 0.057 0.002 0.125 0.002 0.192 0 1.835-0.528 3.546-1.44 4.991l0.023-0.039c-0.598 1.014-1.354 1.868-2.243 2.557l-0.020 0.015c-1.012 0.766-2.226 1.324-3.546 1.586l-0.056 0.009c-1.323 0.278-2.844 0.438-4.402 0.438-0.044 0-0.088-0-0.132-0l0.007 0h-14.405v-32.103h15.434c0.244-0.022 0.527-0.034 0.814-0.034 2.986 0 5.66 1.335 7.458 3.441l0.011 0.014c0.919 1.302 1.469 2.921 1.469 4.669 0 0.077-0.001 0.153-0.003 0.229l0-0.011c0.006 0.109 0.009 0.237 0.009 0.366 0 1.642-0.555 3.153-1.488 4.358l0.012-0.016c-0.675 0.752-1.486 1.366-2.398 1.806l-0.046 0.020c1.549 0.52 2.825 1.512 3.688 2.804l0.016 0.026zM7.383 12.527h6.765c0.131 0.010 0.285 0.015 0.439 0.015 1.070 0 2.079-0.262 2.966-0.726l-0.035 0.017c0.791-0.556 1.302-1.464 1.302-2.492 0-0.11-0.006-0.218-0.017-0.325l0.001 0.013c0.012-0.099 0.019-0.213 0.019-0.329 0-1.175-0.71-2.184-1.724-2.622l-0.018-0.007c-1.044-0.329-2.245-0.518-3.49-0.518-0.103 0-0.205 0.001-0.307 0.004l0.015-0h-5.916zM19.473 21.814c0.008-0.087 0.012-0.187 0.012-0.289 0-1.391-0.83-2.589-2.023-3.123l-0.022-0.009c-0.757-0.262-1.629-0.413-2.536-0.413-0.23 0-0.458 0.010-0.683 0.029l0.029-0.002h-6.868v8.54h6.74c0.107 0.006 0.233 0.009 0.36 0.009 1.040 0 2.030-0.211 2.93-0.593l-0.049 0.019c1.285-0.693 2.143-2.029 2.143-3.566 0-0.185-0.012-0.366-0.036-0.544l0.002 0.021zM51.19 16.669c0.168 1.195 0.263 2.575 0.263 3.977 0 0.212-0.002 0.423-0.007 0.633l0.001-0.031h-16.72c-0.005 0.091-0.008 0.197-0.008 0.303 0 1.877 0.944 3.533 2.382 4.52l0.019 0.012c0.891 0.551 1.972 0.877 3.128 0.877 0.058 0 0.115-0.001 0.173-0.002l-0.008 0c0.114 0.010 0.247 0.016 0.382 0.016 1.818 0 3.393-1.042 4.159-2.561l0.012-0.027h6.122c-0.306 1.614-1.095 3.007-2.209 4.061l-0.003 0.003c-2.021 2.076-4.843 3.363-7.965 3.363-0.23 0-0.458-0.007-0.684-0.021l0.031 0.002c-0.046 0.001-0.1 0.001-0.155 0.001-3.017 0-5.784-1.069-7.944-2.848l0.021 0.017c-2.183-2.039-3.544-4.935-3.544-8.148 0-0.355 0.017-0.707 0.049-1.054l-0.003 0.044c-0.017-0.245-0.027-0.531-0.027-0.819 0-3.202 1.211-6.121 3.201-8.324l-0.010 0.011c1.994-1.977 4.739-3.198 7.769-3.198 0.154 0 0.306 0.003 0.458 0.009l-0.022-0.001c0.052-0.001 0.114-0.001 0.176-0.001 1.881 0 3.668 0.398 5.283 1.114l-0.083-0.033c1.644 0.752 2.989 1.915 3.94 3.361l0.022 0.035c0.91 1.344 1.547 2.945 1.794 4.673l0.007 0.060zM45.17 17.26c-0.028-1.428-0.634-2.71-1.593-3.625l-0.002-0.002c-0.894-0.77-2.066-1.239-3.348-1.239-0.071 0-0.141 0.001-0.212 0.004l0.010-0c-0.085-0.005-0.185-0.009-0.286-0.009-1.277 0-2.437 0.503-3.292 1.322l0.002-0.002c-0.87 0.945-1.45 2.169-1.593 3.523l-0.002 0.027z"></path>
</symbol>
</defs>
</svg>
