<svg aria-hidden="true" style="position: absolute; width: 0; height: 0; overflow: hidden;" version="1.1" xmlns="http://www.w3.org/2000/svg" xmlns:xlink="http://www.w3.org/1999/xlink">
<defs>
<symbol id="geo" viewBox="0 0 23 32">
<title>geo</title>
<path d="M11.429 0c-0 0-0.001 0-0.001 0-6.312 0-11.429 5.117-11.429 11.429 0 0.056 0 0.112 0.001 0.168l-0-0.008c0 7.931 10.217 19.566 10.651 20.069 0.189 0.21 0.462 0.342 0.766 0.342s0.577-0.132 0.765-0.341l0.001-0.001c0.457-0.503 10.674-12.137 10.674-20.069 0.001-0.048 0.001-0.104 0.001-0.16 0-6.312-5.117-11.429-11.429-11.429-0 0-0.001 0-0.001 0h0zM11.429 17.417c-0.020 0-0.044 0-0.069 0-3.219 0-5.829-2.61-5.829-5.829s2.61-5.829 5.829-5.829c3.219 0 5.828 2.609 5.829 5.828v0c0 0.007 0 0.015 0 0.023 0 3.19-2.573 5.78-5.758 5.806l-0.002 0z"></path>
</symbol>
<symbol id="email" viewBox="0 0 46 32">
<title>email</title>
<path d="M20.345 14.939c0.702 0.518 1.584 0.829 2.539 0.829 0.129 0 0.257-0.006 0.383-0.017l-0.016 0.001c0.11 0.010 0.238 0.016 0.367 0.016 0.955 0 1.837-0.311 2.551-0.838l-0.012 0.008 16.654-13.050c1.337-1.046 1.046-1.889-0.668-1.889h-37.784c-1.715 0-2.034 0.843-0.698 1.889zM43.946 5.348l-18.311 13.66c-0.654 0.455-1.465 0.727-2.339 0.727-0.016 0-0.031-0-0.047-0l0.002 0c-0.038 0.001-0.084 0.002-0.129 0.002-0.875 0-1.687-0.273-2.355-0.738l0.014 0.009-18.311-13.689c-1.366-0.988-2.47-0.465-2.47 1.221v22.525c0.095 1.625 1.436 2.907 3.076 2.907 0.012 0 0.024-0 0.036-0l-0.002 0h40.283c0.010 0 0.022 0 0.034 0 1.64 0 2.981-1.282 3.076-2.898l0-0.008v-22.525c0-1.686-1.133-2.209-2.5-1.221z"></path>
</symbol>
<symbol id="tel" viewBox="0 0 32 32">
<title>tel</title>
<path d="M26.905 20.012c-0.454-0.529-1.124-0.862-1.871-0.862s-1.417 0.333-1.868 0.858l-0.003 0.003-2.609 2.634c-0.095 0.131-0.247 0.215-0.42 0.215-0.11 0-0.212-0.034-0.296-0.093l0.002 0.001c-0.566-0.32-1.182-0.566-1.723-0.886-2.547-1.663-4.717-3.646-6.529-5.926l-0.043-0.056c-0.963-1.085-1.786-2.325-2.421-3.671l-0.040-0.095c-0.046-0.078-0.073-0.172-0.073-0.272 0-0.167 0.076-0.317 0.195-0.417l0.001-0.001c0.886-0.837 1.723-1.723 2.585-2.585 0.637-0.451 1.048-1.185 1.048-2.015 0-0.776-0.359-1.468-0.92-1.919l-0.005-0.004-2.068-1.945-2.092-2.142c-0.454-0.529-1.124-0.862-1.871-0.862s-1.417 0.333-1.868 0.858l-0.003 0.003c-0.911 0.886-1.748 1.772-2.634 2.634-0.79 0.723-1.305 1.735-1.378 2.868l-0.001 0.013c-0.005 0.136-0.009 0.297-0.009 0.457 0 1.728 0.356 3.373 0.999 4.866l-0.031-0.080c1.419 3.625 3.331 6.747 5.695 9.467l-0.033-0.039c3.158 3.766 7.026 6.824 11.413 8.991l0.205 0.092c1.847 1 4.011 1.676 6.309 1.89l0.067 0.005c0.156 0.018 0.338 0.029 0.521 0.029 1.396 0 2.65-0.609 3.511-1.575l0.004-0.005c0.763-0.837 1.6-1.6 2.462-2.462 0.555-0.455 0.906-1.14 0.906-1.908s-0.351-1.453-0.902-1.904l-0.004-0.003z"></path>
</symbol>
</defs>
</svg>
